<?xml version="1.0" standalone="no"?>
<!DOCTYPE svg PUBLIC "-//W3C//DTD SVG 20010904//EN"
 "http://www.w3.org/TR/2001/REC-SVG-20010904/DTD/svg10.dtd">
<svg version="1.0" xmlns="http://www.w3.org/2000/svg"
 width="689.000000pt" height="689.000000pt" viewBox="0 0 689.000000 689.000000"
 preserveAspectRatio="xMidYMid meet">

<g transform="translate(0.000000,689.000000) scale(0.100000,-0.100000)"
fill="#000000" stroke="none">
<path d="M2948 6619 c-227 -33 -402 -116 -558 -265 -74 -71 -122 -135 -366
-484 -253 -363 -392 -530 -683 -820 -276 -276 -335 -322 -500 -396 -120 -54
-123 -64 -48 -137 102 -96 147 -155 147 -190 1 -29 2 -30 12 -12 6 11 12 22
14 23 1 2 47 -27 101 -65 124 -89 200 -133 309 -184 177 -84 433 -161 630
-190 l82 -12 -52 -61 c-62 -74 -107 -150 -141 -240 -52 -137 -101 -205 -183
-253 -38 -23 -42 -27 -27 -36 27 -15 142 0 192 24 71 35 91 69 139 244 15 55
42 129 60 165 34 67 94 140 115 140 8 0 8 -4 1 -12 -22 -28 -74 -171 -107
-298 -20 -74 -50 -164 -67 -200 -35 -72 -116 -158 -178 -190 -21 -11 -41 -24
-45 -30 -9 -15 84 -12 140 5 27 8 50 13 52 12 1 -2 -4 -27 -12 -57 -7 -30 -17
-80 -20 -110 -16 -119 -42 -178 -111 -248 -35 -37 -64 -68 -64 -69 0 -9 83 -1
126 12 118 35 178 99 234 250 37 99 79 181 104 203 18 16 19 16 12 -3 -4 -11
-23 -81 -42 -155 -19 -74 -47 -162 -63 -195 -32 -64 -150 -199 -215 -247 l-39
-28 42 0 c49 0 74 11 119 53 17 17 32 29 32 26 0 -2 -7 -26 -15 -53 -8 -27
-15 -72 -15 -101 0 -50 24 -140 40 -150 4 -3 15 15 23 40 25 73 73 133 222
280 78 77 151 154 163 170 l21 30 11 -30 c15 -38 7 -145 -24 -312 -13 -71 -27
-154 -31 -186 -6 -55 -9 -59 -53 -88 -83 -53 -443 -227 -598 -288 -285 -113
-585 -201 -686 -201 -54 0 -62 8 -123 130 -37 73 -38 74 -46 46 -5 -16 -14
-33 -21 -37 -7 -5 -56 -6 -108 -2 -110 7 -136 -2 -237 -84 -32 -25 -63 -50
-70 -55 -6 -5 -52 -18 -100 -28 -108 -22 -135 -34 -192 -79 -60 -47 -91 -116
-91 -201 1 -157 104 -240 298 -240 44 0 87 -3 96 -6 9 -3 45 -43 81 -89 118
-151 189 -195 315 -195 72 0 123 19 168 63 48 46 51 55 72 189 20 133 31 152
101 183 32 15 44 16 66 6 23 -10 25 -10 14 2 -14 17 -39 6 474 211 198 79 431
173 518 209 106 45 159 62 162 54 2 -7 11 -41 20 -77 23 -90 57 -169 99 -233
20 -31 45 -85 55 -120 18 -64 81 -187 125 -242 l23 -29 13 55 c7 30 22 72 33
93 l19 40 46 -93 c57 -118 123 -190 251 -275 55 -35 110 -80 124 -98 46 -62
125 -208 143 -268 11 -33 22 -60 25 -60 4 0 31 24 60 53 36 35 71 86 106 152
54 104 85 139 190 218 90 69 146 139 208 259 l55 108 14 -28 c7 -15 20 -53 27
-84 8 -32 17 -58 20 -58 22 0 119 182 146 273 8 28 35 82 59 118 40 61 104
223 104 265 1 42 14 47 66 24 148 -67 266 -118 409 -177 146 -59 273 -112 578
-240 77 -32 107 -49 103 -59 -4 -10 3 -14 24 -14 41 0 56 -34 65 -145 8 -114
20 -155 58 -200 64 -78 180 -97 290 -46 78 36 131 81 201 176 31 41 61 77 67
80 5 4 49 8 97 9 115 3 166 20 223 76 90 86 93 213 8 331 -27 38 -81 65 -181
90 -102 25 -125 37 -195 101 -72 65 -113 82 -176 74 -53 -7 -87 10 -87 43 -1
9 -10 -1 -21 -22 -11 -22 -44 -63 -73 -93 -51 -52 -54 -54 -107 -54 -193 0
-821 241 -1182 454 l-95 56 -7 67 c-3 38 -14 122 -25 188 -10 66 -21 144 -25
173 -7 54 2 152 13 152 4 -1 23 -23 42 -51 19 -27 80 -92 135 -143 119 -111
179 -185 210 -261 24 -60 32 -59 54 4 15 47 14 128 -4 187 -21 69 -20 71 25
30 22 -19 51 -38 65 -41 14 -3 36 -7 49 -10 36 -7 41 12 8 29 -50 26 -188 181
-222 249 -24 50 -99 312 -100 351 0 5 8 1 19 -8 19 -17 37 -56 107 -226 61
-150 146 -217 287 -228 l68 -5 -61 61 c-77 77 -104 137 -130 292 -11 67 -23
126 -26 131 -8 13 6 11 58 -7 26 -8 69 -14 99 -12 l53 3 -60 37 c-77 47 -149
124 -180 192 -13 29 -38 114 -55 187 -17 74 -46 170 -65 214 -20 44 -38 86
-41 94 -12 28 43 -19 75 -63 43 -60 69 -122 102 -246 15 -58 35 -120 44 -137
39 -76 126 -123 225 -123 66 0 82 14 41 35 -87 45 -138 114 -201 272 -38 96
-85 175 -140 231 -23 24 -40 44 -38 46 2 2 49 8 105 15 320 38 695 176 924
340 47 33 91 61 98 61 6 0 12 5 12 10 0 6 47 60 105 121 58 61 105 119 105
129 0 12 -36 35 -123 78 -67 34 -163 90 -212 125 -319 229 -716 648 -1023
1082 -246 346 -328 446 -464 560 -104 88 -150 116 -263 160 -85 34 -261 70
-306 63 -19 -2 -33 -20 -64 -82 -46 -94 -134 -188 -210 -226 -43 -22 -64 -25
-150 -25 -120 0 -150 13 -250 106 -47 45 -75 82 -102 136 -53 106 -63 112
-195 92z m33 -111 c-6 -30 -12 -34 -69 -49 -76 -20 -168 -67 -239 -121 -95
-73 -168 -159 -383 -453 -144 -196 -491 -657 -554 -735 -43 -52 -133 -156
-202 -231 -260 -286 -431 -395 -609 -387 -47 2 -63 6 -50 11 78 30 178 89 248
145 165 132 469 457 663 707 64 82 359 486 497 681 87 122 211 260 279 310
113 83 288 152 389 153 36 1 36 0 30 -31z m1175 6 c211 -60 331 -159 543 -449
391 -531 627 -811 967 -1145 231 -226 337 -314 446 -369 66 -32 75 -40 56 -45
-76 -20 -199 11 -299 75 -249 161 -684 643 -1211 1344 -108 143 -227 292 -264
331 -107 111 -235 185 -356 208 -28 5 -38 12 -38 26 0 10 -3 25 -6 34 -9 25
58 21 162 -10z m-984 -200 c223 -164 577 -120 730 90 37 51 36 25 -3 -52 -39
-78 -117 -150 -216 -199 -76 -37 -79 -38 -193 -38 l-117 0 -85 42 c-99 49
-171 119 -212 207 -36 76 -33 100 6 41 17 -26 58 -67 90 -91z m609 -1160 c171
-29 374 -104 466 -172 43 -32 65 -65 76 -113 6 -25 4 -27 -39 -33 -25 -3 -105
-31 -177 -62 -239 -101 -257 -104 -574 -104 l-274 0 -137 44 c-275 89 -277 81
-10 -33 320 -137 371 -154 453 -149 60 3 99 15 280 90 116 47 246 102 290 122
88 40 160 47 218 22 18 -7 70 -47 117 -87 222 -192 261 -252 268 -411 3 -76 0
-107 -14 -150 l-19 -53 -6 50 c-3 28 -7 39 -7 25 -1 -14 -11 -80 -22 -146 -24
-142 -21 -154 46 -226 66 -71 89 -127 89 -219 -1 -198 -149 -320 -372 -306
-102 6 -127 21 -51 31 62 9 53 18 -37 36 -144 30 -255 10 -293 -52 -15 -26
-15 -31 2 -75 24 -63 35 -261 15 -274 -18 -11 -36 6 -50 48 -8 26 -14 32 -20
22 -5 -8 -9 -24 -9 -36 0 -31 -26 -19 -47 20 -14 29 -16 29 -29 13 -7 -10 -15
-35 -19 -56 -9 -53 -30 -58 -44 -9 -19 64 -63 50 -79 -26 -10 -51 -32 -59 -32
-11 0 19 -5 38 -11 42 -7 4 -9 0 -5 -14 4 -11 2 -23 -4 -27 -6 -3 -7 -11 -4
-17 4 -7 2 -8 -4 -4 -7 4 -10 19 -7 34 5 22 2 19 -17 -13 -18 -33 -23 -36 -26
-20 -7 37 -18 35 -72 -14 l-55 -48 -56 48 c-30 27 -59 49 -62 49 -4 0 -7 -11
-7 -24 0 -38 -19 -41 -32 -5 -9 28 -12 30 -18 14 -4 -10 -15 -19 -26 -20 -10
-2 -26 -6 -35 -9 -17 -7 -29 17 -29 60 0 22 -26 51 -36 41 -4 -3 -9 -21 -13
-39 -11 -53 -34 -41 -56 30 -10 34 -23 62 -27 62 -4 0 -19 -22 -33 -50 -27
-53 -48 -63 -65 -30 -15 29 -8 236 10 276 12 28 11 34 -8 61 -32 46 -85 67
-167 67 -75 1 -235 -23 -235 -35 0 -8 51 -19 88 -19 18 0 23 -3 15 -11 -5 -5
-50 -13 -99 -16 -239 -15 -389 104 -387 307 0 85 18 123 92 205 34 37 64 79
68 93 6 26 -5 125 -29 252 l-13 65 -5 -50 -5 -50 -15 50 c-28 98 -10 246 42
349 42 82 192 218 313 283 56 30 58 33 29 33 -17 0 -53 -7 -80 -15 -27 -8 -51
-15 -53 -15 -12 0 10 96 29 123 54 77 197 167 347 217 255 85 545 108 804 64z
m950 -421 c13 -16 12 -17 -3 -4 -10 7 -18 15 -18 17 0 8 8 3 21 -13z m143
-303 l7 -25 -15 25 c-17 28 -21 50 -7 35 5 -6 12 -21 15 -35z m-2725 -1265
c-17 -38 -44 -107 -59 -154 l-29 -86 0 60 c-1 107 44 226 93 245 11 4 22 7 24
5 1 -1 -12 -33 -29 -70z m2759 42 c42 -44 65 -115 68 -212 l3 -90 -20 65 c-16
52 -60 166 -96 248 -9 20 22 13 45 -11z m-2270 -154 c61 -135 96 -322 96 -523
0 -159 -11 -219 -64 -341 -27 -61 -60 -157 -73 -214 -12 -50 -5 163 8 263 29
225 38 421 26 590 -7 86 -18 187 -25 225 -7 37 -10 67 -6 67 4 0 21 -30 38
-67z m1838 1 c-45 -177 -51 -262 -49 -689 1 -377 0 -406 -13 -355 -8 30 -28
96 -44 146 -16 50 -34 122 -41 159 -23 131 5 375 67 599 24 86 80 213 90 203
3 -3 -2 -31 -10 -63z m-1544 -106 c-16 -16 -26 14 -17 50 l8 27 10 -33 c7 -23
7 -36 -1 -44z m1234 -6 c-13 -12 -18 9 -10 45 l8 38 4 -39 c2 -21 1 -41 -2
-44z m-218 -29 c-2 -14 -8 -28 -14 -30 -7 -2 -9 8 -6 27 5 37 25 40 20 3z
m-808 -10 c0 -19 -3 -24 -10 -17 -6 6 -8 18 -4 27 9 24 14 21 14 -10z m681
-36 c-15 -15 -24 -2 -16 24 7 20 8 21 17 5 7 -12 7 -21 -1 -29z m-837 7 c9
-25 7 -189 -3 -178 -27 29 -53 169 -34 187 11 12 31 7 37 -9z m1180 -17 c10
-28 -19 -157 -35 -157 -10 0 -12 149 -3 175 9 22 27 14 38 -18z m-69 -41 c10
-24 12 -48 6 -84 -8 -49 -37 -109 -48 -98 -7 6 -11 205 -5 211 14 14 35 1 47
-29z m-1032 -8 c22 -30 37 -190 19 -202 -19 -12 -72 112 -72 169 0 73 16 83
53 33z m140 -48 c24 -90 27 -184 6 -206 -43 -43 -101 42 -107 159 -5 82 13
120 56 115 24 -3 29 -10 45 -68z m823 35 c13 -20 15 -39 10 -86 -3 -33 -11
-70 -17 -82 -31 -59 -82 -86 -96 -51 -10 25 12 211 27 228 19 24 57 19 76 -9z
m-135 -17 c14 -26 4 -190 -14 -227 -7 -14 -24 -32 -40 -41 -24 -13 -29 -13
-37 0 -13 20 -13 175 0 219 19 66 68 93 91 49z m-550 -28 c4 -14 7 -46 8 -72
1 -66 21 -61 21 5 0 28 7 60 14 70 19 24 71 22 96 -5 18 -19 20 -35 20 -134 0
-105 -1 -114 -22 -128 -32 -22 -52 -20 -88 10 -29 25 -32 25 -49 10 -29 -26
-58 -20 -78 17 -23 42 -25 215 -4 241 22 26 73 17 82 -14z m410 11 c22 -18 24
-28 27 -135 5 -128 -1 -146 -47 -146 -36 0 -51 17 -51 60 l-1 35 -22 -45 c-27
-54 -76 -76 -105 -46 -23 23 -21 215 3 252 21 32 59 40 90 20 23 -15 25 -15
35 4 13 25 41 26 71 1z m-680 -276 c21 -47 24 -141 4 -139 -17 2 -45 59 -51
107 -12 86 15 104 47 32z m979 -15 c0 -51 -24 -115 -39 -106 -5 3 -16 -13 -26
-35 -18 -39 -57 -79 -78 -79 -15 0 0 145 19 186 16 33 37 44 49 24 11 -18 21
-11 38 25 23 49 37 44 37 -15z m-859 -62 c14 -28 19 -54 17 -91 -3 -59 -20
-70 -59 -38 -20 16 -24 27 -22 71 0 28 4 67 8 87 5 29 8 33 21 22 9 -7 24 -30
35 -51z m129 -44 c18 1 26 -8 37 -39 30 -87 -3 -149 -48 -90 -17 21 -24 24
-36 14 -11 -10 -16 -10 -22 0 -12 19 -22 135 -14 156 6 16 9 15 33 -12 16 -18
36 -30 50 -29z m555 -26 c10 -57 -2 -97 -31 -104 -13 -3 -31 -1 -38 5 -11 10
-16 8 -21 -9 -4 -12 -19 -26 -33 -31 -23 -9 -30 -7 -46 13 -13 15 -20 19 -23
10 -14 -40 -63 -54 -98 -28 -14 10 -39 12 -96 9 -75 -6 -77 -5 -94 21 -14 20
-16 38 -12 77 4 28 12 57 18 65 17 20 62 17 91 -6 25 -19 26 -19 43 0 19 21
78 27 105 10 8 -5 19 -26 25 -47 l11 -38 18 47 c10 26 25 49 34 53 19 7 42
-19 42 -46 0 -38 17 -25 29 21 20 79 61 67 76 -22z m-1078 -228 c-30 -96 -63
-215 -72 -265 -24 -126 -28 -130 -36 -45 -17 182 34 385 128 509 l28 36 3 -30
c2 -16 -22 -109 -51 -205z m1512 45 c29 -94 45 -231 36 -329 -4 -47 -11 -86
-16 -86 -5 0 -9 11 -9 25 0 35 -32 166 -84 344 -25 85 -44 157 -42 159 2 2 16
-9 30 -25 l26 -28 -10 35 c-6 19 -10 42 -10 50 0 26 59 -82 79 -145z m-1354
33 c-3 -13 -14 -61 -25 -108 -12 -47 -29 -148 -40 -225 -10 -77 -32 -189 -49
-248 -17 -60 -34 -132 -37 -159 -11 -78 -24 -36 -30 94 -10 196 42 429 134
601 36 67 57 87 47 45z m1222 -142 c59 -140 76 -230 77 -406 0 -101 -4 -171
-13 -200 l-13 -45 -24 90 c-13 50 -39 135 -58 190 -67 195 -115 324 -126 345
-6 12 -10 24 -8 26 7 6 47 -52 105 -150 64 -108 66 -100 23 114 -16 83 -30
154 -30 158 0 17 36 -49 67 -122z m-1127 67 c0 -10 -7 -58 -15 -108 -8 -49
-15 -130 -14 -180 l0 -90 28 72 c32 80 84 174 106 193 20 17 20 14 -19 -115
-45 -147 -60 -255 -53 -374 6 -102 46 -263 92 -368 l26 -58 -26 30 c-81 94
-158 249 -196 393 -27 100 -36 272 -19 365 22 131 91 312 90 240z m363 -65
c-2 -24 -9 -68 -15 -98 -16 -87 -22 -472 -9 -606 7 -65 25 -186 41 -269 15
-82 31 -168 35 -190 3 -22 8 -49 11 -60 12 -41 -26 23 -67 116 -122 274 -154
708 -73 987 40 139 88 212 77 120z m-93 8 c0 -2 -7 -23 -16 -47 -38 -105 -75
-323 -81 -479 l-7 -155 -17 70 c-22 90 -24 255 -4 370 16 91 67 230 88 239 15
6 37 7 37 2z m468 -40 c46 -103 57 -172 56 -356 -1 -149 -4 -184 -21 -235
l-21 -60 -2 80 c-2 90 -5 86 -41 -80 -11 -55 -41 -161 -64 -235 -48 -150 -88
-295 -105 -383 -6 -31 -16 -57 -22 -57 -7 0 -9 48 -6 148 5 124 13 182 53 377
47 227 48 233 47 415 0 164 -9 283 -28 389 -5 24 -3 32 5 27 6 -4 11 -18 11
-32 0 -14 4 -23 9 -20 21 14 65 -177 77 -333 6 -74 9 -89 18 -75 7 13 11 98
11 247 -1 125 0 227 2 227 1 0 11 -20 21 -44z m146 -11 c77 -115 122 -297 110
-440 -12 -154 -89 -352 -170 -442 -34 -37 -35 -37 -20 -7 32 66 65 164 86 258
20 85 22 115 17 229 -6 138 -27 237 -81 380 -14 37 -26 70 -26 72 0 3 11 5 24
5 18 0 33 -14 60 -55z m-3439 -460 l50 -25 -47 6 c-126 14 -219 -103 -156
-195 31 -47 74 -70 144 -79 l59 -7 -46 -23 c-58 -28 -114 -28 -169 1 -98 52
-135 149 -90 241 47 98 153 131 255 81z m6092 4 c24 -12 56 -37 71 -57 23 -30
27 -45 27 -103 0 -60 -3 -71 -31 -106 -62 -78 -158 -102 -244 -61 l-45 21 59
8 c101 15 166 73 166 150 0 75 -89 137 -180 124 -44 -6 -44 -6 -22 10 54 39
136 45 199 14z m-5735 -542 c20 -9 52 -17 71 -17 35 0 59 18 101 75 14 18 15
15 16 -40 0 -72 -7 -84 -52 -94 -78 -18 -167 29 -242 128 -77 103 -79 117 -4
41 40 -42 89 -84 110 -93z m5340 81 c-86 -123 -187 -184 -259 -157 -36 14 -43
25 -43 79 0 54 14 84 24 52 10 -31 64 -72 95 -72 40 0 109 48 169 118 30 34
58 62 63 62 5 0 -17 -37 -49 -82z"/>
<path d="M2735 4501 c-26 -5 -22 -8 34 -19 68 -14 69 -22 7 -42 -66 -21 -152
-77 -200 -131 -87 -97 -97 -210 -34 -395 47 -140 92 -214 148 -241 l44 -23
-37 0 c-65 0 -122 41 -151 110 -12 29 -16 32 -21 17 -4 -10 -5 -42 -3 -72 7
-85 66 -135 158 -135 52 0 289 79 400 133 47 23 89 44 94 46 5 2 -6 -18 -25
-44 -48 -67 -132 -141 -171 -150 -27 -7 -29 -9 -11 -12 106 -20 273 141 382
370 13 26 25 46 27 44 2 -2 -5 -48 -16 -102 -27 -131 -25 -153 6 -80 87 201
142 295 172 295 32 0 116 -138 190 -310 l11 -25 0 25 c1 22 -6 59 -34 185 -3
17 15 -10 42 -60 68 -127 101 -172 186 -252 75 -69 121 -93 183 -93 25 0 20 4
-31 29 -33 16 -72 41 -86 57 -33 37 -90 117 -86 121 2 1 33 -13 68 -32 36 -19
126 -58 200 -86 106 -41 146 -52 194 -53 111 -1 165 52 165 159 l0 60 -28 -49
c-34 -62 -66 -86 -123 -92 l-44 -5 30 17 c71 39 107 95 165 259 36 101 48 209
31 271 -30 110 -141 204 -305 258 -27 9 -17 15 55 30 l64 13 -76 8 c-139 13
-163 1 -305 -150 -131 -141 -197 -181 -289 -173 -46 4 -62 10 -90 38 -18 18
-39 46 -46 61 -13 33 -29 38 -29 9 0 -11 -4 -20 -9 -20 -9 0 -12 12 -28 125
l-7 50 -12 -93 c-16 -132 -50 -172 -145 -172 -82 0 -152 45 -273 175 -124 132
-163 156 -252 154 -32 -1 -72 -4 -89 -8z m700 -531 l-15 -45 5 59 c6 65 18 96
23 56 1 -14 -4 -45 -13 -70z m219 73 c3 -10 7 -40 10 -68 6 -49 6 -49 -8 -20
-20 43 -31 105 -18 105 6 0 13 -8 16 -17z"/>
<path d="M4602 4365 c42 -65 55 -75 45 -33 -7 26 -64 98 -77 98 -5 0 9 -29 32
-65z"/>
<path d="M2447 4383 c-27 -52 -28 -79 -2 -30 15 27 24 51 21 54 -2 3 -11 -8
-19 -24z"/>
<path d="M3455 3768 c-57 -67 -142 -303 -152 -419 -9 -105 29 -162 136 -203
33 -13 46 -14 51 -5 14 21 -10 74 -47 105 -31 26 -34 32 -19 37 10 4 33 0 52
-9 19 -9 37 -14 40 -12 2 3 9 33 15 67 11 57 29 76 29 28 0 -12 5 -38 10 -59
l10 -36 30 15 c18 8 39 12 52 7 21 -6 21 -7 -9 -33 -37 -31 -53 -60 -53 -95 0
-33 11 -32 90 7 85 42 105 75 103 172 0 49 -10 100 -33 170 -82 257 -175 368
-205 245 l-11 -45 -15 45 c-18 56 -38 61 -74 18z"/>
<path d="M4603 3677 c-16 -35 -64 -88 -98 -108 -28 -18 -28 -19 -7 -19 63 0
132 65 132 125 0 31 -13 32 -27 2z"/>
<path d="M2450 3631 c0 -50 63 -102 122 -100 l33 1 -42 15 c-26 9 -57 31 -78
56 -19 22 -35 35 -35 28z"/>
<path d="M2321 3520 c-1 -70 80 -176 154 -200 50 -17 54 -6 8 23 -54 35 -107
94 -136 152 -21 41 -26 45 -26 25z"/>
<path d="M4706 3483 c-26 -53 -95 -126 -139 -150 -36 -18 -29 -27 13 -18 64
14 138 103 153 183 9 44 2 40 -27 -15z"/>
<path d="M3890 3469 c0 -19 33 -60 61 -75 30 -15 69 -18 108 -7 20 5 14 9 -36
24 -33 10 -76 30 -96 44 -21 13 -37 20 -37 14z"/>
<path d="M3115 3434 c-27 -13 -61 -24 -75 -24 -38 0 -57 -16 -28 -23 68 -19
131 3 158 54 13 24 7 23 -55 -7z"/>
<path d="M3231 3444 c0 -11 3 -14 6 -6 3 7 2 16 -1 19 -3 4 -6 -2 -5 -13z"/>
<path d="M3860 3311 c0 -57 3 -72 12 -63 15 15 15 92 0 117 -9 16 -11 6 -12
-54z"/>
<path d="M3327 2913 c-4 -3 -7 -15 -7 -27 0 -20 0 -20 15 0 8 10 15 22 15 27
0 9 -14 9 -23 0z"/>
</g>
</svg>
